<svg width="1200" height="675" viewBox="0 0 1200 675" fill="none" xmlns="http://www.w3.org/2000/svg">
  <rect width="1200" height="675" fill="#05070B"/>
  <path d="M0 0H1200V675H0V0Z" fill="url(#bgGlow)"/>
  <g opacity="0.18">
    <path d="M0 75H1200M0 150H1200M0 225H1200M0 300H1200M0 375H1200M0 450H1200M0 525H1200M0 600H1200" stroke="#80FFD2"/>
    <path d="M75 0V675M150 0V675M225 0V675M300 0V675M375 0V675M450 0V675M525 0V675M600 0V675M675 0V675M750 0V675M825 0V675M900 0V675M975 0V675M1050 0V675M1125 0V675" stroke="#80FFD2"/>
  </g>

  <rect x="42" y="42" width="190" height="590" rx="30" fill="#08101A" stroke="#263747"/>
  <circle cx="88" cy="92" r="31" fill="#B7FF95"/>
  <circle cx="78" cy="82" r="7" fill="#F7FFF4"/>
  <text x="88" y="104" text-anchor="middle" font-family="Georgia, serif" font-size="27" font-weight="800" fill="#03100C">S</text>
  <text x="58" y="162" font-family="Georgia, serif" font-size="34" font-weight="800" fill="#F6FFF7">Steward</text>
  <path d="M58 540H216" stroke="#DDFEF6" stroke-opacity="0.18"/>
  <text x="58" y="572" font-family="IBM Plex Mono, Arial, sans-serif" font-size="12" font-weight="700" letter-spacing="5" fill="#80FFD2">LIVE TESTNET</text>
  <text x="58" y="602" font-family="IBM Plex Mono, Arial, sans-serif" font-size="12" font-weight="700" letter-spacing="4" fill="#97A9A6">15 REVIEWER CALLS</text>

  <text x="282" y="108" font-family="IBM Plex Mono, Arial, sans-serif" font-size="16" font-weight="700" letter-spacing="8" fill="#80FFD2">SOMNIA AGENTATHON · PROOF ROOM</text>
  <text x="280" y="214" font-family="Georgia, serif" font-size="60" font-weight="800" letter-spacing="-4" fill="#F6FFF7">Proposal URLs</text>
  <text x="280" y="286" font-family="Georgia, serif" font-size="60" font-weight="800" letter-spacing="-4" fill="#F6FFF7">become agent</text>
  <text x="280" y="358" font-family="Georgia, serif" font-size="60" font-weight="800" letter-spacing="-4" fill="#F6FFF7">council votes.</text>

  <rect x="292" y="460" width="390" height="72" rx="26" fill="#0C1B20" stroke="#315B57"/>
  <text x="318" y="488" font-family="IBM Plex Mono, Arial, sans-serif" font-size="14" font-weight="700" letter-spacing="5" fill="#80FFD2">5 URL RUNS · 15 REVIEWERS</text>
  <text x="318" y="518" font-family="IBM Plex Mono, Arial, sans-serif" font-size="21" font-weight="700" fill="#F6FFF7">External forum proof included</text>

  <rect x="760" y="98" width="372" height="452" rx="56" fill="#07120F" stroke="#315B57"/>
  <rect x="800" y="136" width="292" height="320" rx="28" fill="#152A28" fill-opacity="0.82" stroke="#3B6C64"/>
  <text x="830" y="180" font-family="IBM Plex Mono, Arial, sans-serif" font-size="14" font-weight="700" letter-spacing="6" fill="#97A9A6">EXTERNAL PROOF</text>
  <text x="828" y="254" font-family="Georgia, serif" font-size="61" font-weight="800" letter-spacing="-4" fill="#F8F4E6">Developer</text>
  <text x="862" y="320" font-family="Georgia, serif" font-size="61" font-weight="800" letter-spacing="-4" fill="#F8F4E6">DAO →</text>
  <text x="934" y="386" font-family="Georgia, serif" font-size="61" font-weight="800" letter-spacing="-4" fill="#F8F4E6">YES</text>
  <rect x="814" y="486" width="284" height="40" rx="20" fill="#80FFD2"/>
  <text x="842" y="512" font-family="IBM Plex Mono, Arial, sans-serif" font-size="15" font-weight="700" letter-spacing="3" fill="#04100C">STEWARD_FULL_PROOF_VALID</text>

  <defs>
    <radialGradient id="bgGlow" cx="0" cy="0" r="1" gradientUnits="userSpaceOnUse" gradientTransform="translate(918 100) rotate(135) scale(590 420)">
      <stop stop-color="#80FFD2" stop-opacity="0.22"/>
      <stop offset="0.48" stop-color="#102826" stop-opacity="0.46"/>
      <stop offset="1" stop-color="#05070B" stop-opacity="0"/>
    </radialGradient>
  </defs>
</svg>
